<?xml version="1.0" encoding="utf-8"?>
<!-- Generator: Adobe Illustrator 19.0.0, SVG Export Plug-In . SVG Version: 6.00 Build 0)  -->
<svg version="1.1"
	 id="svg1" xmlns:xml="http://www.w3.org/XML/1998/namespace" xmlns:rdf="http://www.w3.org/1999/02/22-rdf-syntax-ns#" xmlns:svgmaker="http://www.svgmaker.com/svgns" xmlns:dc="http://purl.org/dc/elements/1.1/" xmlns:inkscape="http://www.inkscape.org/namespaces/inkscape" xmlns:cc="http://web.resource.org/cc/" xmlns:sodipodi="http://sodipodi.sourceforge.net/DTD/sodipodi-0.dtd" sodipodi:docbase="/home/rk/download" sodipodi:docname="eesti_maakonnad.svg" inkscape:version="0.40" sodipodi:version="0.32"
	 xmlns="http://www.w3.org/2000/svg" xmlns:xlink="http://www.w3.org/1999/xlink" x="0px" y="0px" viewBox="48 142 707 509"
	 style="enable-background:new 48 142 707 509;" xml:space="preserve">
<style type="text/css">
	.st0{fill:#CC3333;stroke:#000000;stroke-width:1.2126;stroke-linecap:round;stroke-linejoin:round;}
	.st1{fill:#CC3333;stroke:#000000;stroke-width:1.1903;stroke-linecap:round;stroke-linejoin:round;}
	.st2{fill:#CC3333;stroke:#000000;stroke-width:1.0105;stroke-linecap:round;stroke-linejoin:round;}
	.st3{fill:#660000;stroke:#000000;stroke-width:1.2126;stroke-linecap:round;stroke-linejoin:round;}
	.st4{fill:#990000;stroke:#000000;stroke-width:1.2126;stroke-linecap:round;stroke-linejoin:round;}
</style>
<sodipodi:namedview  id="base" inkscape:zoom="1.0000000" pagecolor="#ffffff" borderopacity="1.0" bordercolor="#666666" inkscape:current-layer="svg1" inkscape:window-y="47" inkscape:window-x="124" inkscape:window-height="941" inkscape:window-width="1062" inkscape:pageshadow="2" inkscape:pageopacity="0.0" inkscape:cy="233.68744" inkscape:cx="383.80926">
	</sodipodi:namedview>
<svgmaker:init  id="init3" width="420.0mm" cropBox="0 1 4757 3122" cropHeight="275.3mm" cropWidth="419.5mm" crop="none" view="fit" viewBox="0 0 4763 3368" height="297.0mm">
	</svgmaker:init>
<title  id="title5">Eesti maakonnad 2006</title>
<desc  id="desc8">Counties of Estonia 2006</desc>
<path id="Valgamaa" class="st0" d="M558.2,546.7c-10.8-7,19,58.4,15.5,63.3c-24.1,14.3-50.2-43.2-52.8-50.1
	c-21.3-16.8-50.2,1.4-45.7-34.5c0.1-0.6,33.9-14.8,22.7-22.8c3,6.9,26.9,6.1,22.1,9c1.7-1.7,40.7-15.2,37.1-18.6
	c31.2,11.3,8.5,50.7,10.5,45.9C567.4,540.4,558.4,546.3,558.2,546.7z"/>
<path id="Vostokmaa" class="st0" d="M657.6,244.2c25.5,35.6,63.2-42.7,59.3,21.4c1.1-18.5-39.1,65.8-34.4,62.7
	c10.3-4.8-85.5,40.7-70.2,42.7c-40.9-5.8-42.9-50.9-20.2-85.1c-5.5-15.1-9.5-36.4-15.6-24c6.5-5.4-10-30.7-7.8-32.7
	C581.9,231,645.3,258.6,657.6,244.2C658.1,245,658.2,243.5,657.6,244.2z"/>
<path id="Jõgevamaa" class="st0" d="M587.5,418.3c-9.8-8.1-45.3,17-61.3,18.7c-5.7-15.9-37.2-17.8-40.6-25.6
	c27.1-133.7,42.4-30.4,93.4-73.7c14.2,21.5,62,43.1,36.7,72.3c-3.3,1.1-12.8-8-17.3-7.1C598.5,402.4,591.4,425.8,587.5,418.3
	C585.9,417,587.7,418.6,587.5,418.3z"/>
<path id="Järvamaa" class="st0" d="M489.2,392c-22.2,56.3-96.1,24.1-59.8-17.8c10-11.6-36.1-77.9,25.3-91
	c33-18.2,46.1,40.3,45.3,39.6C532.1,377.2,480.9,360.8,489.2,392C488.9,393.6,488.5,389.4,489.2,392z"/>
<path id="Põlvamaa" class="st0" d="M679.4,556.3c-17,16-24.8-10.4-25.1-11.5c-15.9-20.2-114.3,20.8-68.6-52.4
	c10-16,46.3-16.3,59-11.2c11.3,4.5,45.4,50.2,38.9,49.7c-2.8-2.2,0.9-10,2.6-11.3C708.8,553.1,697.5,538.5,679.4,556.3
	C678.9,556.8,679.3,556.4,679.4,556.3z"/>
<g id="Tartumaa">
	<path id="path46" class="st1" d="M530,451.3c18.7-21.9-5.9-17.4,48.7-34.7c9.2,0.2,18.5,6.4,19.8-13.6c4.7-1,14.2,8,17.3,7.1
		c3.4-3.5,4.1-10.8,11.7-17.7c-6.9,4.8,37.9,94.1,37.7,94c-52.5-14.8-53.8-1.5-83.8,16.8c-10.3-0.2-22.8-6.5-24.2-10.3
		C490,522.8,537.8,507.8,530,451.3z"/>
</g>
<path id="Viljandimaa" class="st0" d="M428.1,422.5c-4.2-2.1,49-18.9,59.5-26.9c3.9,1.5-1.8,15.9-1.9,15.7
	c5.9,11.4,37.9,9.6,44,32.7c5.1,19.4-37.5-6.5-37.1,1.4c0.3,5.4,27.8,59.3,27.2,60.5c-7.3,4.1-24.1-1.6-22.1-3.7
	c3,3.2-23.2,35.4-25.6,37.6c-3.7,0.6-32.8-18.1-32.7-22.3c-2.3,2.3,6.7,16.9,0.1,16.3c2.3,0.5-26.1-35.4-25.2-10.2
	c-0.5-2.5-1.3-4.8-2.5-7c0-0.3,11.5-19.1,10.4-18c21.2-13-3.7-12.7-2.8-27.4C420.4,455.6,422.7,444.1,428.1,422.5
	C425.8,421.4,427.8,423.7,428.1,422.5z"/>
<path id="Võrumaa" class="st0" d="M587.4,613.6c-1.4-1.8-10.2,4.6-18.7-26.3c-1.5-5.6-16.7-32.8-11.4-39.5
	c13.7-17.2,79.5-7.6,93.7-6.5c7.1,2-2.7,10.8-2.6,13.9c9.2,7.6,17.3-3.7,29,1.4c-1-0.8-17.8,62.2-17.8,62.2
	C642.2,630.3,597.8,580.2,587.4,613.6C587.9,614.4,587.8,612.3,587.4,613.6z"/>
<g id="LääneVirumaa">
	<path id="path40" class="st2" d="M556.8,347.8c0.2,0.1-40-7.2-47.9-6.3c8.1-9.8,1-22.6-8.6-18.4c-11-10.3,0.3-38.4-38.9-40.1
		c4.2-2.4,32.9-10.8,36.5-5.4c-6.9-10.2,0-54.7-6.3-64.2c0,0.2,8.7,7.5,9.5,7.4c0.1,0.1,1.5-11.5,1.2-11c35,0.9,81,16.4,74.2,51.4
		c0.1,0.1,12.7,0.3,11.5,3.2C588.5,281.8,611.7,325.8,556.8,347.8C549.1,350.9,557.7,347.7,556.8,347.8z"/>
</g>
<g id="Hiiumaa">
	<path id="path3770" class="st2" d="M194.2,370.1c-4.3,0.5-2.8,2.5-10.8,13.1c4.8-0.8-4.6-8.4-3.4-8.5c3.5,0.4,4.6,2.7,6.5-3.5
		c-23.3,57-41.9-19.4-78.1-25.3c-1.1,10.3,42.4-11.9,43.8-16.1C133.2,313,233.7,349.7,211,369C206.9,373.2,196.5,363.7,194.2,370.1
		C193.5,370.1,193.9,371,194.2,370.1z"/>
</g>
<g id="Läänemaa">
	<path id="path3299" class="st2" d="M257.8,388.4c2.9,4.2,19.8-0.2,22.6-2.8c0.4-0.6-2.2-4.5,0.9-4.8c-1-0.1-1.3-0.6-1.1-1.4
		c-1.5-2.2-28.9,1.9-30.4,4.2c-0.9-0.9,2-4.1,0.4-5.8c-1.9-1.9,8.8-3.7,8.1-3c-2.3,5.2,11.3-57.2,13.4-31.1c1.1,0.8-3-10.3-5.1-7.2
		c5.3-0.8-4.6-0.2-3-0.7c-38.4-8.6,11.7-52.8,18.3-51.8c0,8.3,12.4,28.1,26.7,43.1c7.4,7.8,46.1,28,28.1,72.2
		c-11.5,11.1-25.5,10.6-44.9,9.2c6.9,5-5,7,5.7,14.3c1.7,14.4-46-2.3-34.8-3.5c-2.7-1-2.5,5.9-3,5.5c-0.5,0-1.1-2.1-3.9-1.4
		C257.9,414.3,256.1,389.5,257.8,388.4C258,388.8,257.2,388.8,257.8,388.4z"/>
</g>
<g id="Pärnumaa">
	<path id="path374" class="st1" d="M256.9,411.8v0.2V411.8z M355.8,484.8c27.9-54.3-41.7-4.5-37.8,3.5c4.9-11.1-35.5-31-36.6-20.5
		c3.4-4.5-10.8-43.7-14.5-41c0.3-0.5,30.7-1.9,30.6-2.5c0.3-1.7-8.1-14.6-5.3-16.6c27.1,12.4,76.7-26.2,108.3-5.7
		c32.6-40.5,25.6,9.1,26.7,20c0.9,8.7-3.7,10.8-4.3,23.2c-1.1,21.9,6.2,23.5,5.8,30.2c-2.7,47.2-35.7,35.3-78.9,84.1
		c-2.1-0.8-4.3-1.6-6.5-2.4C357.2,543.1,348.3,489.1,355.8,484.8C356.2,484.1,355.4,485,355.8,484.8z"/>
</g>
<path id="Raplamaa" class="st1" d="M365.8,395.7c-35.9,18.7-26,4.1-24.6-12.7c2.1-26.8-5.9-22.5-18.4-45.3
	c-3.6,6,40.4-32.1,40.2-19.4c-23.7-15,37.8-28.4,34.8-26.3c-0.4,3.4,89.3,90.3,2.3,109.2c-3.8-7.6-30.3-8-31.6-7.9
	C367.6,394.8,367.2,395.5,365.8,395.7z"/>
<g id="Saaremaa">
	<path id="path434" class="st2" d="M225.3,433.9c10.3,3.2,9.7,7.8,8.8,15.4c-2.5-0.9-1.3-7-2.5-9.9c3,0-5.6,8.1-4.9,3.9
		c0.7,1.2,4.2,5.5,2.3,5.7c0-0.2-3.1-0.7-3-0.5c-5.4,0-1.3-7.6-1.1-8.3c-5.1,4.2-2.4,2.9-5.1-0.9c-2.5,5.1-11.9,18.4-8.1,19.3
		c-0.1,0-10-2.1-12.4-1.4c-8.4,9.6-21.7,14.1-27,21.4c-2.3,1.3,5.5,8.4,3.7,11.1c-1.1,0.2-2.1,0.6-3,1.2c-1.8-0.6-16.1-7.7-11.5-3.2
		 M161.5,487.6c-10.8-26.5-45.8,41.3-58.6,61.2c4-15.6-3.9-23,13.2-31.5c13.5,4.3-34-50.5-33.9-47.2c2.4,6.2,10.6-7.3,3.9-9.6
		c2.1,2,8.2,8.3,8.1,8.8c2,1.7,0.6-8.9-0.9-8.7c3.1,7.3,5.3-13.7-8.8-27.7c0.6,2.2,23.2-8.9,23.8,15.4c-0.4-0.3,12.4-21.6,13.6-24.6
		c1.2-0.7,3.9,11.3,7.9,12c6.1-1-0.1-15,0.7-16.3c6.8-8.2,22,4.5,26.5-13.1c-6.6,8.4,64.6,11.9,63.4,14.5c-0.1-0.1-14.4-8.7-9.7-9.6
		c-6.4-26.2,54.2,3.6,32.7,21.4c-0.7,3.3-7.2-7.1-6.9-8.1c-0.1,1.5-7.6,4.9-9,6c-0.7-3.6-6.4-6.1-6.9-9.4
		c-12.1,7.5,3.8,9.8,4.6,12.5"/>
</g>
<g id="Harjumaa">
	<path id="path56" class="st2" d="M421.7,231.7c-2.9,7,27.1,3.8,29.8,3.2c18.3-4.2-1.6-14.1,4.6-26.3c-0.8-0.2,14.9,18.9,17.3,15.6
		c5.7-5.1-4-15.7-1.2-18c1-0.6,1.6-1.4,1.9-2.5c25.9-9.3,19.6,71.4,23.7,73.9c-7.9-6.5-33.9,4.1-43.7,5.6
		c29.1,18.2-74.9,63-54.9,11.9c-8.3-13.8-49.8,18.9-36.4,23.4c-5.4-11.5-40,25.6-47.4,20.5c-6.7-17.5-30.6-34.3-33.6-55
		c-0.1-0.8,31.7-3.8,33.6-0.4c1.9-10.3-3.9-9.2-6-22.3c1.2-4.1,19.4,13.3,21,7.6c1.3-2.8-7.1-12-4.1-11.5c-5.2-13.2,41-5.1,46.1-4.8
		c-3.1-6.9,3.6-6.9,2.5-10.6c17.2,3.8,5.4,9.3,10.2-16.6c6.2,6,28.8,23.3,35.3,16.4C423.4,236.1,418.2,231.6,421.7,231.7
		C421.5,232.1,421.3,231.7,421.7,231.7z"/>
</g>
<path class="st3" d="M580.8,443.6c16.3-13.1,34.4,10.8,18.4,24.4c-11.9,10.1-29.6-19.6-24-19.6L580.8,443.6z"/>
<path class="st4" d="M385,245c-10.5-23.7,12.5-34,19.9,7.3c0.5,2.7-0.9,16-3.3,17.4c-3.2,1.8-27.6,19-35.7,7.4
	c-26.8-4.1-17.4-27.2,6.1-25c-3.2-16.1,7.6-11,13.2-7.2"/>
<path class="st4" d="M346.9,461.8c-2.2-17.3,25.2-24.9,34-11c8.3,13.2-8.9,21.6-19.8,21.7C365.1,456.7,354.5,460.6,346.9,461.8"/>
<path class="st4" d="M705,282c-3.3-7.3-9.3-29.5-8.4-35.4c0.7-4.8,9.6-9.3,15-7.6C734.1,246.3,709.4,271.4,705,282z"/>
</svg>
